<?xml version="1.0" encoding="utf-8"?>
<!-- Generator: Adobe Illustrator 25.4.1, SVG Export Plug-In . SVG Version: 6.00 Build 0)  -->
<svg version="1.1" id="Ebene_1" xmlns="http://www.w3.org/2000/svg" xmlns:xlink="http://www.w3.org/1999/xlink" x="0px" y="0px"
	 viewBox="0 0 256 256" style="enable-background:new 0 0 256 256;" xml:space="preserve">
<g>
	<path d="M9.3,52.7c1.5-21.3,15.9-32,43.2-32c4.8,0,9.4,0.3,14,0.9c4.6,0.6,7.8,1.1,9.6,1.6c1.9,0.4,5,1.3,9.3,2.8
		c4.4,1.5,6.6,2.2,6.8,2.2c3.1,1,14.9,5.3,35.4,12.7c18-11.6,40.6-17.4,67.8-17.4c10.8,0,19.2,1,25.2,3.1c2.7,0.8,5,1.7,7,2.5
		c2,0.8,3.4,1.6,4.4,2.2c0.9,0.6,1.7,1.2,2.2,1.7c0.5,0.5,1,0.9,1.4,1.1l0.3,0.6c1.7,1,3.6,3.2,5.8,6.4c2.2,3.2,3.2,7.4,3,12.6
		c-0.2,5.2-3.1,9.7-8.7,13.7c-8.5,4.4-17.4,6.5-26.7,6.5c-10.2,0-22.7-2.6-37.6-7.8c-14.1-6.2-28.7-12.4-43.8-18.7
		c-0.6,0.2-1.4,0.6-2.3,1.2c-0.9,0.6-1.6,1.1-2,1.6c-7,5.2-11.2,12.3-12.6,21.5c-1.3,9.1,0.7,17.7,6.1,25.8
		c4.8,6.6,11.2,14,19.4,22.1c8.2,8.1,13.2,13.3,15.1,15.5c7.5,8.9,12.8,17,16.2,24.4c3.3,7.4,5.5,15.4,6.5,24.1
		c1.7,14.7-1.6,27.8-9.8,39.2c-8.2,11.4-20.1,17.1-35.6,17.1c-14.9,0-26.1-6-33.6-18c-6-9.1-8.4-19-7.1-29.5
		c0.6-4.8,2.3-8.5,5.1-11.2c2.8-2.7,6.2-4,10.1-4c6,0,10.4,3,13.1,9c3.5,8.7,6.2,14.4,8.1,17.1c3.5,4.1,8.1,5.8,13.7,5
		c7.9-1,13-5.5,15.2-13.4s2.9-14.6,1.7-20.2c-1.1-5.6-4.5-12.6-10.1-21.1c-3.5-5.2-8.9-12-16-20.4c-7.2-8.4-13-16-17.4-22.7
		c-4.5-6.7-7.2-13.4-8.2-20.1c-1.9-12.2,0.5-23.3,7.1-33.3c2.9-4.4,6.7-8.4,11.5-12.1c-17-7-29.8-11.9-38.6-14.6
		C72.5,27,62,26.2,51.9,27.8c-5.4,0.8-9.5,3.1-12.3,6.7c-2.8,3.6-4.3,7.2-4.5,10.7c-0.2,2.9,1.3,7.4,4.7,13.4
		c2.7,4.4,3.1,8.6,1.2,12.7c-0.6,1.5-2.1,2.8-4.4,4s-4.8,1.9-7.5,1.9c-4.6,0-8.7-1.9-12.4-5.6C11.3,65.9,8.8,59.5,9.3,52.7z
		 M184.9,54.2c5.6,0,11.1-0.6,16.5-1.9c15.5-3.5,22.7-7.7,21.5-12.4c-0.4-1.2-1.3-2.4-2.8-3.4c-7.3-4.1-18.7-6.2-34.2-6.2
		c-18.4,0-35.6,4.4-51.6,13.1C155.4,50.6,172.3,54.2,184.9,54.2z"/>
</g>
</svg>
